<?xml version="1.0" encoding="utf-8"?>
<!-- Generator: Adobe Illustrator 19.0.0, SVG Export Plug-In . SVG Version: 6.00 Build 0)  -->
<svg version="1.1" id="Layer_1" xmlns="http://www.w3.org/2000/svg" xmlns:xlink="http://www.w3.org/1999/xlink" x="0px" y="0px"
	 width="310px" height="188.5px" viewBox="0 0 310 188.5" style="enable-background:new 0 0 310 188.5;" xml:space="preserve">
<style type="text/css">
	.st0{fill:#FF8800;}
	.st1{fill:#BB6400;}
</style>
<line id="XMLID_76_" class="st0" x1="202.9" y1="51.9" x2="165.5" y2="87.1"/>
<line id="XMLID_69_" class="st0" x1="144.5" y1="87.1" x2="107" y2="51.9"/>
<polygon id="XMLID_74_" class="st0" points="267.6,6.7 267.5,6.8 267.5,6.7 "/>
<polygon id="XMLID_85_" class="st0" points="305,42 248.7,95 211.3,130.2 200.8,140 155,183.1 155,183.1 109.2,140 98.7,130.2 
	61.3,94.9 5,42 42.4,6.7 42.5,6.7 98.7,59.7 136.2,94.9 146.7,104.8 155,112.6 163.3,104.8 173.8,95 211.3,59.7 267.5,6.8 "/>
<polygon id="XMLID_71_" class="st0" points="267.6,6.7 267.5,6.8 267.5,6.7 "/>
<line id="XMLID_72_" class="st0" x1="42.5" y1="6.7" x2="42.4" y2="6.7"/>
<line id="XMLID_70_" class="st0" x1="267.5" y1="6.8" x2="267.5" y2="6.7"/>
<polygon id="XMLID_82_" class="st1" points="90.2,138.1 42.5,183.1 5,147.9 52.8,102.9 "/>
<polygon id="XMLID_79_" class="st1" points="202.9,51.9 165.5,87.1 155,77.2 144.5,87.1 107,51.9 155,6.7 "/>
<polygon id="XMLID_78_" class="st1" points="305,147.9 267.6,183.1 267.5,183.1 219.6,138 257.1,102.8 "/>
<line id="XMLID_68_" class="st0" x1="257.1" y1="102.8" x2="219.6" y2="138"/>
<line id="XMLID_67_" class="st0" x1="90.2" y1="138.1" x2="52.8" y2="102.9"/>
</svg>
