<?xml version="1.0" encoding="utf-8"?>
<!-- Generator: Adobe Illustrator 19.0.0, SVG Export Plug-In . SVG Version: 6.00 Build 0)  -->
<svg version="1.1" id="Layer_1" xmlns="http://www.w3.org/2000/svg" xmlns:xlink="http://www.w3.org/1999/xlink" x="0px" y="0px"
	 width="548.2px" height="332px" viewBox="0 0 548.2 332" style="enable-background:new 0 0 548.2 332;" xml:space="preserve">
<style type="text/css">
	.st0{fill:#FF8800;}
	.st1{fill:#FFFEFD;}
	.st2{fill:#B5B5B5;}
</style>
<line id="XMLID_76_" class="st0" x1="364.2" y1="86.7" x2="296.6" y2="150.3"/>
<line id="XMLID_69_" class="st0" x1="258.8" y1="150.3" x2="191.1" y2="86.8"/>
<polygon id="XMLID_74_" class="st0" points="480.7,5.4 480.6,5.4 480.6,5.4 "/>
<polygon id="XMLID_85_" class="st1" points="548.2,69 446.7,164.4 379.2,228 360.4,245.7 277.8,323.4 277.7,323.3 195.2,245.7 
	176.3,227.9 108.7,164.3 7.3,68.9 74.8,5.4 74.9,5.4 176.3,100.8 243.8,164.3 262.7,182.1 277.8,196.3 292.8,182.2 311.7,164.4 
	379.2,100.9 480.6,5.4 "/>
<polygon id="XMLID_71_" class="st0" points="480.7,5.4 480.6,5.4 480.6,5.4 "/>
<line id="XMLID_72_" class="st0" x1="74.8" y1="5.3" x2="74.8" y2="5.4"/>
<line id="XMLID_70_" class="st0" x1="480.6" y1="5.4" x2="480.6" y2="5.4"/>
<polygon id="XMLID_82_" class="st2" points="161,242.3 74.8,323.3 7.3,259.8 93.4,178.7 "/>
<polygon id="XMLID_79_" class="st2" points="364.2,86.7 296.6,150.3 277.7,132.5 258.8,150.3 191.1,86.8 277.7,5.4 "/>
<polygon id="XMLID_78_" class="st2" points="548.2,259.9 480.7,323.4 480.6,323.4 394.2,242.1 461.8,178.6 "/>
<line id="XMLID_68_" class="st0" x1="461.8" y1="178.6" x2="394.2" y2="242.1"/>
<line id="XMLID_67_" class="st0" x1="161" y1="242.3" x2="93.4" y2="178.7"/>
</svg>
